<?xml version="1.0" encoding="us-ascii" standalone="no"?><svg xmlns="http://www.w3.org/2000/svg" xmlns:xlink="http://www.w3.org/1999/xlink" contentStyleType="text/css" height="1009px" preserveAspectRatio="none" style="width:2765px;height:1009px;background:#FFFFFF;" version="1.1" viewBox="0 0 2765 1009" width="2765px" zoomAndPan="magnify"><defs/><g><text fill="#000000" font-family="sans-serif" font-size="14" font-weight="bold" lengthAdjust="spacing" textLength="210" x="1270.5" y="24.5332">uTime - Domain Class Diagram</text><!--cluster Shared Context--><g id="cluster_Shared Context"><path d="M589.5,821.6094 L699.5,821.6094 A3.75,3.75 0 0 1 702,824.1094 L709,845.2188 L1240.5,845.2188 A2.5,2.5 0 0 1 1243,847.7188 L1243,1000.1094 A2.5,2.5 0 0 1 1240.5,1002.6094 L589.5,1002.6094 A2.5,2.5 0 0 1 587,1000.1094 L587,824.1094 A2.5,2.5 0 0 1 589.5,821.6094 " fill="none" style="stroke:#000000;stroke-width:1.5;"/><line style="stroke:#000000;stroke-width:1.5;" x1="587" x2="709" y1="845.2188" y2="845.2188"/><text fill="#000000" font-family="sans-serif" font-size="14" font-weight="bold" lengthAdjust="spacing" textLength="109" x="591" y="838.1426">Shared Context</text></g><!--cluster Account Management Context--><g id="cluster_Account Management Context"><path d="M565.5,274.6094 L777.5,274.6094 A3.75,3.75 0 0 1 780,277.1094 L787,298.2188 L1148.5,298.2188 A2.5,2.5 0 0 1 1151,300.7188 L1151,753.6094 A2.5,2.5 0 0 1 1148.5,756.1094 L565.5,756.1094 A2.5,2.5 0 0 1 563,753.6094 L563,277.1094 A2.5,2.5 0 0 1 565.5,274.6094 " fill="none" style="stroke:#000000;stroke-width:1.5;"/><line style="stroke:#000000;stroke-width:1.5;" x1="563" x2="787" y1="298.2188" y2="298.2188"/><text fill="#000000" font-family="sans-serif" font-size="14" font-weight="bold" lengthAdjust="spacing" textLength="211" x="567" y="291.1426">Account Management Context</text></g><!--cluster User Context--><g id="cluster_User Context"><path d="M1177.5,301.1094 L1270.5,301.1094 A3.75,3.75 0 0 1 1273,303.6094 L1280,324.7188 L1866.5,324.7188 A2.5,2.5 0 0 1 1869,327.2188 L1869,736.1094 A2.5,2.5 0 0 1 1866.5,738.6094 L1177.5,738.6094 A2.5,2.5 0 0 1 1175,736.1094 L1175,303.6094 A2.5,2.5 0 0 1 1177.5,301.1094 " fill="none" style="stroke:#000000;stroke-width:1.5;"/><line style="stroke:#000000;stroke-width:1.5;" x1="1175" x2="1280" y1="324.7188" y2="324.7188"/><text fill="#000000" font-family="sans-serif" font-size="14" font-weight="bold" lengthAdjust="spacing" textLength="92" x="1179" y="317.6426">User Context</text></g><!--cluster Scheduling Context--><g id="cluster_Scheduling Context"><path d="M8.5,44.6094 L147.5,44.6094 A3.75,3.75 0 0 1 150,47.1094 L157,68.2188 L486.5,68.2188 A2.5,2.5 0 0 1 489,70.7188 L489,973.6094 A2.5,2.5 0 0 1 486.5,976.1094 L8.5,976.1094 A2.5,2.5 0 0 1 6,973.6094 L6,47.1094 A2.5,2.5 0 0 1 8.5,44.6094 " fill="none" style="stroke:#000000;stroke-width:1.5;"/><line style="stroke:#000000;stroke-width:1.5;" x1="6" x2="157" y1="68.2188" y2="68.2188"/><text fill="#000000" font-family="sans-serif" font-size="14" font-weight="bold" lengthAdjust="spacing" textLength="138" x="10" y="61.1426">Scheduling Context</text></g><!--cluster Payments Context--><g id="cluster_Payments Context"><path d="M1895.5,539.6094 L2022.5,539.6094 A3.75,3.75 0 0 1 2025,542.1094 L2032,563.2188 L2755.5,563.2188 A2.5,2.5 0 0 1 2758,565.7188 L2758,1000.1094 A2.5,2.5 0 0 1 2755.5,1002.6094 L1895.5,1002.6094 A2.5,2.5 0 0 1 1893,1000.1094 L1893,542.1094 A2.5,2.5 0 0 1 1895.5,539.6094 " fill="none" style="stroke:#000000;stroke-width:1.5;"/><line style="stroke:#000000;stroke-width:1.5;" x1="1893" x2="2032" y1="563.2188" y2="563.2188"/><text fill="#000000" font-family="sans-serif" font-size="14" font-weight="bold" lengthAdjust="spacing" textLength="126" x="1897" y="556.1426">Payments Context</text></g><!--class AccountId--><g id="elem_AccountId"><rect codeLine="5" fill="#F1F1F1" height="76.3125" id="AccountId" rx="2.5" ry="2.5" style="stroke:#181818;stroke-width:0.5;" width="110" x="603" y="884.1094"/><ellipse cx="618" cy="905.4609" fill="#ADD1B2" rx="11" ry="11" style="stroke:#181818;stroke-width:1.0;"/><path d="M620.7656,901.3359 Q620.9219,901.1172 621.1094,901.0078 Q621.2969,900.8984 621.5156,900.8984 Q621.8906,900.8984 622.125,901.1563 Q622.3594,901.4141 622.3594,902.0234 L622.3594,903.4766 Q622.3594,904.0859 622.125,904.3516 Q621.8906,904.6172 621.5156,904.6172 Q621.1719,904.6172 620.9688,904.4141 Q620.7656,904.2266 620.6563,903.7109 Q620.6094,903.3516 620.4219,903.1641 Q620.0938,902.7891 619.4844,902.5703 Q618.875,902.3516 618.25,902.3516 Q617.4844,902.3516 616.8516,902.6797 Q616.2188,903.0078 615.7266,903.7578 Q615.2344,904.5078 615.2344,905.5391 L615.2344,906.6328 Q615.2344,907.8672 616.125,908.6875 Q617.0156,909.5078 618.6094,909.5078 Q619.5469,909.5078 620.2031,909.2578 Q620.5938,909.1016 621.0156,908.6641 Q621.2813,908.3984 621.4297,908.3203 Q621.5781,908.2422 621.7813,908.2422 Q622.1094,908.2422 622.3672,908.5 Q622.625,908.7578 622.625,909.1016 Q622.625,909.4453 622.2813,909.8516 Q621.7813,910.4297 620.9844,910.7578 Q619.9063,911.2109 618.6094,911.2109 Q617.0938,911.2109 615.8906,910.5859 Q614.9063,910.0859 614.2188,909.0156 Q613.5313,907.9453 613.5313,906.6641 L613.5313,905.5078 Q613.5313,904.1797 614.1484,903.0313 Q614.7656,901.8828 615.8594,901.2656 Q616.9531,900.6484 618.1875,900.6484 Q618.9219,900.6484 619.5703,900.8125 Q620.2188,900.9766 620.7656,901.3359 Z " fill="#000000"/><text fill="#000000" font-family="sans-serif" font-size="12" font-style="italic" lengthAdjust="spacing" textLength="82" x="630" y="901.5664">&#171;ValueObject&#187;</text><text fill="#000000" font-family="sans-serif" font-size="14" lengthAdjust="spacing" textLength="62" x="640" y="918.7363">AccountId</text><line style="stroke:#181818;stroke-width:0.5;" x1="604" x2="712" y1="926.8125" y2="926.8125"/><rect fill="none" height="6" style="stroke:#C82930;stroke-width:1.0;" width="6" x="611" y="938.1172"/><text fill="#000000" font-family="sans-serif" font-size="14" lengthAdjust="spacing" textLength="73" x="623" y="945.3457">value: UUID</text><line style="stroke:#181818;stroke-width:0.5;" x1="604" x2="712" y1="952.4219" y2="952.4219"/></g><!--class ReservationId--><g id="elem_ReservationId"><rect codeLine="9" fill="#F1F1F1" height="76.3125" id="ReservationId" rx="2.5" ry="2.5" style="stroke:#181818;stroke-width:0.5;" width="119" x="893.5" y="884.1094"/><ellipse cx="908.5" cy="905.4609" fill="#ADD1B2" rx="11" ry="11" style="stroke:#181818;stroke-width:1.0;"/><path d="M911.2656,901.3359 Q911.4219,901.1172 911.6094,901.0078 Q911.7969,900.8984 912.0156,900.8984 Q912.3906,900.8984 912.625,901.1563 Q912.8594,901.4141 912.8594,902.0234 L912.8594,903.4766 Q912.8594,904.0859 912.625,904.3516 Q912.3906,904.6172 912.0156,904.6172 Q911.6719,904.6172 911.4688,904.4141 Q911.2656,904.2266 911.1563,903.7109 Q911.1094,903.3516 910.9219,903.1641 Q910.5938,902.7891 909.9844,902.5703 Q909.375,902.3516 908.75,902.3516 Q907.9844,902.3516 907.3516,902.6797 Q906.7188,903.0078 906.2266,903.7578 Q905.7344,904.5078 905.7344,905.5391 L905.7344,906.6328 Q905.7344,907.8672 906.625,908.6875 Q907.5156,909.5078 909.1094,909.5078 Q910.0469,909.5078 910.7031,909.2578 Q911.0938,909.1016 911.5156,908.6641 Q911.7813,908.3984 911.9297,908.3203 Q912.0781,908.2422 912.2813,908.2422 Q912.6094,908.2422 912.8672,908.5 Q913.125,908.7578 913.125,909.1016 Q913.125,909.4453 912.7813,909.8516 Q912.2813,910.4297 911.4844,910.7578 Q910.4063,911.2109 909.1094,911.2109 Q907.5938,911.2109 906.3906,910.5859 Q905.4063,910.0859 904.7188,909.0156 Q904.0313,907.9453 904.0313,906.6641 L904.0313,905.5078 Q904.0313,904.1797 904.6484,903.0313 Q905.2656,901.8828 906.3594,901.2656 Q907.4531,900.6484 908.6875,900.6484 Q909.4219,900.6484 910.0703,900.8125 Q910.7188,900.9766 911.2656,901.3359 Z " fill="#000000"/><text fill="#000000" font-family="sans-serif" font-size="12" font-style="italic" lengthAdjust="spacing" textLength="82" x="925" y="901.5664">&#171;ValueObject&#187;</text><text fill="#000000" font-family="sans-serif" font-size="14" lengthAdjust="spacing" textLength="87" x="922.5" y="918.7363">ReservationId</text><line style="stroke:#181818;stroke-width:0.5;" x1="894.5" x2="1011.5" y1="926.8125" y2="926.8125"/><rect fill="none" height="6" style="stroke:#C82930;stroke-width:1.0;" width="6" x="901.5" y="938.1172"/><text fill="#000000" font-family="sans-serif" font-size="14" lengthAdjust="spacing" textLength="73" x="913.5" y="945.3457">value: UUID</text><line style="stroke:#181818;stroke-width:0.5;" x1="894.5" x2="1011.5" y1="952.4219" y2="952.4219"/></g><!--class PaymentId--><g id="elem_PaymentId"><rect codeLine="13" fill="#F1F1F1" height="76.3125" id="PaymentId" rx="2.5" ry="2.5" style="stroke:#181818;stroke-width:0.5;" width="110" x="748" y="884.1094"/><ellipse cx="763" cy="905.4609" fill="#ADD1B2" rx="11" ry="11" style="stroke:#181818;stroke-width:1.0;"/><path d="M765.7656,901.3359 Q765.9219,901.1172 766.1094,901.0078 Q766.2969,900.8984 766.5156,900.8984 Q766.8906,900.8984 767.125,901.1563 Q767.3594,901.4141 767.3594,902.0234 L767.3594,903.4766 Q767.3594,904.0859 767.125,904.3516 Q766.8906,904.6172 766.5156,904.6172 Q766.1719,904.6172 765.9688,904.4141 Q765.7656,904.2266 765.6563,903.7109 Q765.6094,903.3516 765.4219,903.1641 Q765.0938,902.7891 764.4844,902.5703 Q763.875,902.3516 763.25,902.3516 Q762.4844,902.3516 761.8516,902.6797 Q761.2188,903.0078 760.7266,903.7578 Q760.2344,904.5078 760.2344,905.5391 L760.2344,906.6328 Q760.2344,907.8672 761.125,908.6875 Q762.0156,909.5078 763.6094,909.5078 Q764.5469,909.5078 765.2031,909.2578 Q765.5938,909.1016 766.0156,908.6641 Q766.2813,908.3984 766.4297,908.3203 Q766.5781,908.2422 766.7813,908.2422 Q767.1094,908.2422 767.3672,908.5 Q767.625,908.7578 767.625,909.1016 Q767.625,909.4453 767.2813,909.8516 Q766.7813,910.4297 765.9844,910.7578 Q764.9063,911.2109 763.6094,911.2109 Q762.0938,911.2109 760.8906,910.5859 Q759.9063,910.0859 759.2188,909.0156 Q758.5313,907.9453 758.5313,906.6641 L758.5313,905.5078 Q758.5313,904.1797 759.1484,903.0313 Q759.7656,901.8828 760.8594,901.2656 Q761.9531,900.6484 763.1875,900.6484 Q763.9219,900.6484 764.5703,900.8125 Q765.2188,900.9766 765.7656,901.3359 Z " fill="#000000"/><text fill="#000000" font-family="sans-serif" font-size="12" font-style="italic" lengthAdjust="spacing" textLength="82" x="775" y="901.5664">&#171;ValueObject&#187;</text><text fill="#000000" font-family="sans-serif" font-size="14" lengthAdjust="spacing" textLength="66" x="783" y="918.7363">PaymentId</text><line style="stroke:#181818;stroke-width:0.5;" x1="749" x2="857" y1="926.8125" y2="926.8125"/><rect fill="none" height="6" style="stroke:#C82930;stroke-width:1.0;" width="6" x="756" y="938.1172"/><text fill="#000000" font-family="sans-serif" font-size="14" lengthAdjust="spacing" textLength="73" x="768" y="945.3457">value: UUID</text><line style="stroke:#181818;stroke-width:0.5;" x1="749" x2="857" y1="952.4219" y2="952.4219"/></g><!--class Money--><g id="elem_Money"><rect codeLine="17" fill="#F1F1F1" height="129.1406" id="Money" rx="2.5" ry="2.5" style="stroke:#181818;stroke-width:0.5;" width="179" x="1047.5" y="857.6094"/><ellipse cx="1093.75" cy="878.9609" fill="#ADD1B2" rx="11" ry="11" style="stroke:#181818;stroke-width:1.0;"/><path d="M1096.5156,874.8359 Q1096.6719,874.6172 1096.8594,874.5078 Q1097.0469,874.3984 1097.2656,874.3984 Q1097.6406,874.3984 1097.875,874.6563 Q1098.1094,874.9141 1098.1094,875.5234 L1098.1094,876.9766 Q1098.1094,877.5859 1097.875,877.8516 Q1097.6406,878.1172 1097.2656,878.1172 Q1096.9219,878.1172 1096.7188,877.9141 Q1096.5156,877.7266 1096.4063,877.2109 Q1096.3594,876.8516 1096.1719,876.6641 Q1095.8438,876.2891 1095.2344,876.0703 Q1094.625,875.8516 1094,875.8516 Q1093.2344,875.8516 1092.6016,876.1797 Q1091.9688,876.5078 1091.4766,877.2578 Q1090.9844,878.0078 1090.9844,879.0391 L1090.9844,880.1328 Q1090.9844,881.3672 1091.875,882.1875 Q1092.7656,883.0078 1094.3594,883.0078 Q1095.2969,883.0078 1095.9531,882.7578 Q1096.3438,882.6016 1096.7656,882.1641 Q1097.0313,881.8984 1097.1797,881.8203 Q1097.3281,881.7422 1097.5313,881.7422 Q1097.8594,881.7422 1098.1172,882 Q1098.375,882.2578 1098.375,882.6016 Q1098.375,882.9453 1098.0313,883.3516 Q1097.5313,883.9297 1096.7344,884.2578 Q1095.6563,884.7109 1094.3594,884.7109 Q1092.8438,884.7109 1091.6406,884.0859 Q1090.6563,883.5859 1089.9688,882.5156 Q1089.2813,881.4453 1089.2813,880.1641 L1089.2813,879.0078 Q1089.2813,877.6797 1089.8984,876.5313 Q1090.5156,875.3828 1091.6094,874.7656 Q1092.7031,874.1484 1093.9375,874.1484 Q1094.6719,874.1484 1095.3203,874.3125 Q1095.9688,874.4766 1096.5156,874.8359 Z " fill="#000000"/><text fill="#000000" font-family="sans-serif" font-size="12" font-style="italic" lengthAdjust="spacing" textLength="82" x="1112.25" y="875.0664">&#171;ValueObject&#187;</text><text fill="#000000" font-family="sans-serif" font-size="14" lengthAdjust="spacing" textLength="42" x="1132.25" y="892.2363">Money</text><line style="stroke:#181818;stroke-width:0.5;" x1="1048.5" x2="1225.5" y1="900.3125" y2="900.3125"/><rect fill="none" height="6" style="stroke:#C82930;stroke-width:1.0;" width="6" x="1055.5" y="911.6172"/><text fill="#000000" font-family="sans-serif" font-size="14" lengthAdjust="spacing" textLength="105" x="1067.5" y="918.8457">amount: Decimal</text><rect fill="none" height="6" style="stroke:#C82930;stroke-width:1.0;" width="6" x="1055.5" y="929.2266"/><text fill="#000000" font-family="sans-serif" font-size="14" lengthAdjust="spacing" textLength="100" x="1067.5" y="936.4551">currency: String</text><line style="stroke:#181818;stroke-width:1.0;" x1="1048.5" x2="1225.5" y1="943.5313" y2="943.5313"/><ellipse cx="1058.5" cy="957.8359" fill="#84BE84" rx="3" ry="3" style="stroke:#038048;stroke-width:1.0;"/><text fill="#000000" font-family="sans-serif" font-size="14" lengthAdjust="spacing" textLength="126" x="1067.5" y="962.0645">add(Money): Money</text><ellipse cx="1058.5" cy="975.4453" fill="#84BE84" rx="3" ry="3" style="stroke:#038048;stroke-width:1.0;"/><text fill="#000000" font-family="sans-serif" font-size="14" lengthAdjust="spacing" textLength="153" x="1067.5" y="979.6738">subtract(Money): Money</text></g><!--class Account--><g id="elem_Account"><rect codeLine="28" fill="#F1F1F1" height="181.9688" id="Account" rx="2.5" ry="2.5" style="stroke:#181818;stroke-width:0.5;" width="281" x="579.5" y="310.6094"/><ellipse cx="669.25" cy="331.9609" fill="#ADD1B2" rx="11" ry="11" style="stroke:#181818;stroke-width:1.0;"/><path d="M672.0156,327.8359 Q672.1719,327.6172 672.3594,327.5078 Q672.5469,327.3984 672.7656,327.3984 Q673.1406,327.3984 673.375,327.6563 Q673.6094,327.9141 673.6094,328.5234 L673.6094,329.9766 Q673.6094,330.5859 673.375,330.8516 Q673.1406,331.1172 672.7656,331.1172 Q672.4219,331.1172 672.2188,330.9141 Q672.0156,330.7266 671.9063,330.2109 Q671.8594,329.8516 671.6719,329.6641 Q671.3438,329.2891 670.7344,329.0703 Q670.125,328.8516 669.5,328.8516 Q668.7344,328.8516 668.1016,329.1797 Q667.4688,329.5078 666.9766,330.2578 Q666.4844,331.0078 666.4844,332.0391 L666.4844,333.1328 Q666.4844,334.3672 667.375,335.1875 Q668.2656,336.0078 669.8594,336.0078 Q670.7969,336.0078 671.4531,335.7578 Q671.8438,335.6016 672.2656,335.1641 Q672.5313,334.8984 672.6797,334.8203 Q672.8281,334.7422 673.0313,334.7422 Q673.3594,334.7422 673.6172,335 Q673.875,335.2578 673.875,335.6016 Q673.875,335.9453 673.5313,336.3516 Q673.0313,336.9297 672.2344,337.2578 Q671.1563,337.7109 669.8594,337.7109 Q668.3438,337.7109 667.1406,337.0859 Q666.1563,336.5859 665.4688,335.5156 Q664.7813,334.4453 664.7813,333.1641 L664.7813,332.0078 Q664.7813,330.6797 665.3984,329.5313 Q666.0156,328.3828 667.1094,327.7656 Q668.2031,327.1484 669.4375,327.1484 Q670.1719,327.1484 670.8203,327.3125 Q671.4688,327.4766 672.0156,327.8359 Z " fill="#000000"/><text fill="#000000" font-family="sans-serif" font-size="12" font-style="italic" lengthAdjust="spacing" textLength="97" x="687.75" y="328.0664">&#171;AggregateRoot&#187;</text><text fill="#000000" font-family="sans-serif" font-size="14" lengthAdjust="spacing" textLength="51" x="710.75" y="345.2363">Account</text><line style="stroke:#181818;stroke-width:0.5;" x1="580.5" x2="859.5" y1="353.3125" y2="353.3125"/><rect fill="none" height="6" style="stroke:#C82930;stroke-width:1.0;" width="6" x="587.5" y="364.6172"/><text fill="#000000" font-family="sans-serif" font-size="14" lengthAdjust="spacing" textLength="131" x="599.5" y="371.8457">accountId: AccountId</text><rect fill="none" height="6" style="stroke:#C82930;stroke-width:1.0;" width="6" x="587.5" y="382.2266"/><text fill="#000000" font-family="sans-serif" font-size="14" lengthAdjust="spacing" textLength="78" x="599.5" y="389.4551">email: String</text><rect fill="none" height="6" style="stroke:#C82930;stroke-width:1.0;" width="6" x="587.5" y="399.8359"/><text fill="#000000" font-family="sans-serif" font-size="14" lengthAdjust="spacing" textLength="137" x="599.5" y="407.0645">passwordHash: String</text><rect fill="none" height="6" style="stroke:#C82930;stroke-width:1.0;" width="6" x="587.5" y="417.4453"/><text fill="#000000" font-family="sans-serif" font-size="14" lengthAdjust="spacing" textLength="108" x="599.5" y="424.6738">isActive: Boolean</text><line style="stroke:#181818;stroke-width:1.0;" x1="580.5" x2="859.5" y1="431.75" y2="431.75"/><ellipse cx="590.5" cy="446.0547" fill="#84BE84" rx="3" ry="3" style="stroke:#038048;stroke-width:1.0;"/><text fill="#000000" font-family="sans-serif" font-size="14" lengthAdjust="spacing" textLength="80" x="599.5" y="450.2832">erase(): void</text><ellipse cx="590.5" cy="463.6641" fill="#84BE84" rx="3" ry="3" style="stroke:#038048;stroke-width:1.0;"/><text fill="#000000" font-family="sans-serif" font-size="14" lengthAdjust="spacing" textLength="255" x="599.5" y="467.8926">validatePassword(plain: String): Boolean</text><ellipse cx="590.5" cy="481.2734" fill="#84BE84" rx="3" ry="3" style="stroke:#038048;stroke-width:1.0;"/><text fill="#000000" font-family="sans-serif" font-size="14" lengthAdjust="spacing" textLength="213" x="599.5" y="485.502">generateAuthToken(): AuthToken</text></g><!--class AuthToken--><g id="elem_AuthToken"><rect codeLine="39" fill="#F1F1F1" height="146.75" id="AuthToken" rx="2.5" ry="2.5" style="stroke:#181818;stroke-width:0.5;" width="157" x="579.5" y="593.1094"/><ellipse cx="619.7" cy="614.4609" fill="#ADD1B2" rx="11" ry="11" style="stroke:#181818;stroke-width:1.0;"/><path d="M622.4656,610.3359 Q622.6219,610.1172 622.8094,610.0078 Q622.9969,609.8984 623.2156,609.8984 Q623.5906,609.8984 623.825,610.1563 Q624.0594,610.4141 624.0594,611.0234 L624.0594,612.4766 Q624.0594,613.0859 623.825,613.3516 Q623.5906,613.6172 623.2156,613.6172 Q622.8719,613.6172 622.6688,613.4141 Q622.4656,613.2266 622.3563,612.7109 Q622.3094,612.3516 622.1219,612.1641 Q621.7938,611.7891 621.1844,611.5703 Q620.575,611.3516 619.95,611.3516 Q619.1844,611.3516 618.5516,611.6797 Q617.9188,612.0078 617.4266,612.7578 Q616.9344,613.5078 616.9344,614.5391 L616.9344,615.6328 Q616.9344,616.8672 617.825,617.6875 Q618.7156,618.5078 620.3094,618.5078 Q621.2469,618.5078 621.9031,618.2578 Q622.2938,618.1016 622.7156,617.6641 Q622.9813,617.3984 623.1297,617.3203 Q623.2781,617.2422 623.4813,617.2422 Q623.8094,617.2422 624.0672,617.5 Q624.325,617.7578 624.325,618.1016 Q624.325,618.4453 623.9813,618.8516 Q623.4813,619.4297 622.6844,619.7578 Q621.6063,620.2109 620.3094,620.2109 Q618.7938,620.2109 617.5906,619.5859 Q616.6063,619.0859 615.9188,618.0156 Q615.2313,616.9453 615.2313,615.6641 L615.2313,614.5078 Q615.2313,613.1797 615.8484,612.0313 Q616.4656,610.8828 617.5594,610.2656 Q618.6531,609.6484 619.8875,609.6484 Q620.6219,609.6484 621.2703,609.8125 Q621.9188,609.9766 622.4656,610.3359 Z " fill="#000000"/><text fill="#000000" font-family="sans-serif" font-size="12" font-style="italic" lengthAdjust="spacing" textLength="44" x="651.8" y="610.5664">&#171;Entity&#187;</text><text fill="#000000" font-family="sans-serif" font-size="14" lengthAdjust="spacing" textLength="69" x="639.3" y="627.7363">AuthToken</text><line style="stroke:#181818;stroke-width:0.5;" x1="580.5" x2="735.5" y1="635.8125" y2="635.8125"/><rect fill="none" height="6" style="stroke:#C82930;stroke-width:1.0;" width="6" x="587.5" y="647.1172"/><text fill="#000000" font-family="sans-serif" font-size="14" lengthAdjust="spacing" textLength="80" x="599.5" y="654.3457">token: String</text><rect fill="none" height="6" style="stroke:#C82930;stroke-width:1.0;" width="6" x="587.5" y="664.7266"/><text fill="#000000" font-family="sans-serif" font-size="14" lengthAdjust="spacing" textLength="131" x="599.5" y="671.9551">accountId: AccountId</text><rect fill="none" height="6" style="stroke:#C82930;stroke-width:1.0;" width="6" x="587.5" y="682.3359"/><text fill="#000000" font-family="sans-serif" font-size="14" lengthAdjust="spacing" textLength="123" x="599.5" y="689.5645">issuedAt: DateTime</text><rect fill="none" height="6" style="stroke:#C82930;stroke-width:1.0;" width="6" x="587.5" y="699.9453"/><text fill="#000000" font-family="sans-serif" font-size="14" lengthAdjust="spacing" textLength="127" x="599.5" y="707.1738">expiresAt: DateTime</text><line style="stroke:#181818;stroke-width:1.0;" x1="580.5" x2="735.5" y1="714.25" y2="714.25"/><ellipse cx="590.5" cy="728.5547" fill="#84BE84" rx="3" ry="3" style="stroke:#038048;stroke-width:1.0;"/><text fill="#000000" font-family="sans-serif" font-size="14" lengthAdjust="spacing" textLength="87" x="599.5" y="732.7832">revoke(): void</text></g><!--class AuthAdapter--><g id="elem_AuthAdapter"><rect codeLine="48" fill="#F1F1F1" height="76.3125" id="AuthAdapter" rx="2.5" ry="2.5" style="stroke:#181818;stroke-width:0.5;" width="363" x="771.5" y="628.6094"/><ellipse cx="909.25" cy="649.9609" fill="#ADD1B2" rx="11" ry="11" style="stroke:#181818;stroke-width:1.0;"/><path d="M912.0156,645.8359 Q912.1719,645.6172 912.3594,645.5078 Q912.5469,645.3984 912.7656,645.3984 Q913.1406,645.3984 913.375,645.6563 Q913.6094,645.9141 913.6094,646.5234 L913.6094,647.9766 Q913.6094,648.5859 913.375,648.8516 Q913.1406,649.1172 912.7656,649.1172 Q912.4219,649.1172 912.2188,648.9141 Q912.0156,648.7266 911.9063,648.2109 Q911.8594,647.8516 911.6719,647.6641 Q911.3438,647.2891 910.7344,647.0703 Q910.125,646.8516 909.5,646.8516 Q908.7344,646.8516 908.1016,647.1797 Q907.4688,647.5078 906.9766,648.2578 Q906.4844,649.0078 906.4844,650.0391 L906.4844,651.1328 Q906.4844,652.3672 907.375,653.1875 Q908.2656,654.0078 909.8594,654.0078 Q910.7969,654.0078 911.4531,653.7578 Q911.8438,653.6016 912.2656,653.1641 Q912.5313,652.8984 912.6797,652.8203 Q912.8281,652.7422 913.0313,652.7422 Q913.3594,652.7422 913.6172,653 Q913.875,653.2578 913.875,653.6016 Q913.875,653.9453 913.5313,654.3516 Q913.0313,654.9297 912.2344,655.2578 Q911.1563,655.7109 909.8594,655.7109 Q908.3438,655.7109 907.1406,655.0859 Q906.1563,654.5859 905.4688,653.5156 Q904.7813,652.4453 904.7813,651.1641 L904.7813,650.0078 Q904.7813,648.6797 905.3984,647.5313 Q906.0156,646.3828 907.1094,645.7656 Q908.2031,645.1484 909.4375,645.1484 Q910.1719,645.1484 910.8203,645.3125 Q911.4688,645.4766 912.0156,645.8359 Z " fill="#000000"/><text fill="#000000" font-family="sans-serif" font-size="12" font-style="italic" lengthAdjust="spacing" textLength="57" x="940.75" y="646.0664">&#171;Adapter&#187;</text><text fill="#000000" font-family="sans-serif" font-size="14" lengthAdjust="spacing" textLength="79" x="929.75" y="663.2363">AuthAdapter</text><line style="stroke:#181818;stroke-width:0.5;" x1="772.5" x2="1133.5" y1="671.3125" y2="671.3125"/><line style="stroke:#181818;stroke-width:0.5;" x1="772.5" x2="1133.5" y1="679.3125" y2="679.3125"/><ellipse cx="782.5" cy="693.6172" fill="#84BE84" rx="3" ry="3" style="stroke:#038048;stroke-width:1.0;"/><text fill="#000000" font-family="sans-serif" font-size="14" lengthAdjust="spacing" textLength="337" x="791.5" y="697.8457">authenticateWithGoogle(oauthCode: String): Boolean</text></g><!--class User--><g id="elem_User"><rect codeLine="60" fill="#F1F1F1" height="111.5313" id="User" rx="2.5" ry="2.5" style="stroke:#181818;stroke-width:0.5;" width="157" x="1440.5" y="610.6094"/><ellipse cx="1469.9" cy="631.9609" fill="#ADD1B2" rx="11" ry="11" style="stroke:#181818;stroke-width:1.0;"/><path d="M1472.6656,627.8359 Q1472.8219,627.6172 1473.0094,627.5078 Q1473.1969,627.3984 1473.4156,627.3984 Q1473.7906,627.3984 1474.025,627.6563 Q1474.2594,627.9141 1474.2594,628.5234 L1474.2594,629.9766 Q1474.2594,630.5859 1474.025,630.8516 Q1473.7906,631.1172 1473.4156,631.1172 Q1473.0719,631.1172 1472.8688,630.9141 Q1472.6656,630.7266 1472.5563,630.2109 Q1472.5094,629.8516 1472.3219,629.6641 Q1471.9938,629.2891 1471.3844,629.0703 Q1470.775,628.8516 1470.15,628.8516 Q1469.3844,628.8516 1468.7516,629.1797 Q1468.1188,629.5078 1467.6266,630.2578 Q1467.1344,631.0078 1467.1344,632.0391 L1467.1344,633.1328 Q1467.1344,634.3672 1468.025,635.1875 Q1468.9156,636.0078 1470.5094,636.0078 Q1471.4469,636.0078 1472.1031,635.7578 Q1472.4938,635.6016 1472.9156,635.1641 Q1473.1813,634.8984 1473.3297,634.8203 Q1473.4781,634.7422 1473.6813,634.7422 Q1474.0094,634.7422 1474.2672,635 Q1474.525,635.2578 1474.525,635.6016 Q1474.525,635.9453 1474.1813,636.3516 Q1473.6813,636.9297 1472.8844,637.2578 Q1471.8063,637.7109 1470.5094,637.7109 Q1468.9938,637.7109 1467.7906,637.0859 Q1466.8063,636.5859 1466.1188,635.5156 Q1465.4313,634.4453 1465.4313,633.1641 L1465.4313,632.0078 Q1465.4313,630.6797 1466.0484,629.5313 Q1466.6656,628.3828 1467.7594,627.7656 Q1468.8531,627.1484 1470.0875,627.1484 Q1470.8219,627.1484 1471.4703,627.3125 Q1472.1188,627.4766 1472.6656,627.8359 Z " fill="#000000"/><text fill="#000000" font-family="sans-serif" font-size="12" font-style="italic" lengthAdjust="spacing" textLength="97" x="1485.1" y="628.0664">&#171;AggregateRoot&#187;</text><text fill="#000000" font-family="sans-serif" font-size="14" lengthAdjust="spacing" textLength="29" x="1519.1" y="645.2363">User</text><line style="stroke:#181818;stroke-width:0.5;" x1="1441.5" x2="1596.5" y1="653.3125" y2="653.3125"/><rect fill="none" height="6" style="stroke:#C82930;stroke-width:1.0;" width="6" x="1448.5" y="664.6172"/><text fill="#000000" font-family="sans-serif" font-size="14" lengthAdjust="spacing" textLength="78" x="1460.5" y="671.8457">userId: UUID</text><rect fill="none" height="6" style="stroke:#C82930;stroke-width:1.0;" width="6" x="1448.5" y="682.2266"/><text fill="#000000" font-family="sans-serif" font-size="14" lengthAdjust="spacing" textLength="131" x="1460.5" y="689.4551">accountId: AccountId</text><rect fill="none" height="6" style="stroke:#C82930;stroke-width:1.0;" width="6" x="1448.5" y="699.8359"/><text fill="#000000" font-family="sans-serif" font-size="14" lengthAdjust="spacing" textLength="80" x="1460.5" y="707.0645">name: String</text><line style="stroke:#181818;stroke-width:0.5;" x1="1441.5" x2="1596.5" y1="714.1406" y2="714.1406"/></g><!--class Client--><g id="elem_Client"><rect codeLine="66" fill="#F1F1F1" height="93.9219" id="Client" rx="2.5" ry="2.5" style="stroke:#181818;stroke-width:0.5;" width="305" x="1547.5" y="354.6094"/><ellipse cx="1675.75" cy="375.9609" fill="#ADD1B2" rx="11" ry="11" style="stroke:#181818;stroke-width:1.0;"/><path d="M1678.5156,371.8359 Q1678.6719,371.6172 1678.8594,371.5078 Q1679.0469,371.3984 1679.2656,371.3984 Q1679.6406,371.3984 1679.875,371.6563 Q1680.1094,371.9141 1680.1094,372.5234 L1680.1094,373.9766 Q1680.1094,374.5859 1679.875,374.8516 Q1679.6406,375.1172 1679.2656,375.1172 Q1678.9219,375.1172 1678.7188,374.9141 Q1678.5156,374.7266 1678.4063,374.2109 Q1678.3594,373.8516 1678.1719,373.6641 Q1677.8438,373.2891 1677.2344,373.0703 Q1676.625,372.8516 1676,372.8516 Q1675.2344,372.8516 1674.6016,373.1797 Q1673.9688,373.5078 1673.4766,374.2578 Q1672.9844,375.0078 1672.9844,376.0391 L1672.9844,377.1328 Q1672.9844,378.3672 1673.875,379.1875 Q1674.7656,380.0078 1676.3594,380.0078 Q1677.2969,380.0078 1677.9531,379.7578 Q1678.3438,379.6016 1678.7656,379.1641 Q1679.0313,378.8984 1679.1797,378.8203 Q1679.3281,378.7422 1679.5313,378.7422 Q1679.8594,378.7422 1680.1172,379 Q1680.375,379.2578 1680.375,379.6016 Q1680.375,379.9453 1680.0313,380.3516 Q1679.5313,380.9297 1678.7344,381.2578 Q1677.6563,381.7109 1676.3594,381.7109 Q1674.8438,381.7109 1673.6406,381.0859 Q1672.6563,380.5859 1671.9688,379.5156 Q1671.2813,378.4453 1671.2813,377.1641 L1671.2813,376.0078 Q1671.2813,374.6797 1671.8984,373.5313 Q1672.5156,372.3828 1673.6094,371.7656 Q1674.7031,371.1484 1675.9375,371.1484 Q1676.6719,371.1484 1677.3203,371.3125 Q1677.9688,371.4766 1678.5156,371.8359 Z " fill="#000000"/><text fill="#000000" font-family="sans-serif" font-size="12" font-style="italic" lengthAdjust="spacing" textLength="44" x="1694.25" y="372.0664">&#171;Entity&#187;</text><text fill="#000000" font-family="sans-serif" font-size="14" lengthAdjust="spacing" textLength="36" x="1698.25" y="389.2363">Client</text><line style="stroke:#181818;stroke-width:0.5;" x1="1548.5" x2="1851.5" y1="397.3125" y2="397.3125"/><rect fill="none" height="6" style="stroke:#C82930;stroke-width:1.0;" width="6" x="1555.5" y="408.6172"/><text fill="#000000" font-family="sans-serif" font-size="14" lengthAdjust="spacing" textLength="83" x="1567.5" y="415.8457">clientId: UUID</text><line style="stroke:#181818;stroke-width:1.0;" x1="1548.5" x2="1851.5" y1="422.9219" y2="422.9219"/><ellipse cx="1558.5" cy="437.2266" fill="#84BE84" rx="3" ry="3" style="stroke:#038048;stroke-width:1.0;"/><text fill="#000000" font-family="sans-serif" font-size="14" lengthAdjust="spacing" textLength="279" x="1567.5" y="441.4551">updateClientInfo(name: String, email: String)</text></g><!--class Salon--><g id="elem_Salon"><rect codeLine="72" fill="#F1F1F1" height="129.1406" id="Salon" rx="2.5" ry="2.5" style="stroke:#181818;stroke-width:0.5;" width="321" x="1191.5" y="337.1094"/><ellipse cx="1327.75" cy="358.4609" fill="#ADD1B2" rx="11" ry="11" style="stroke:#181818;stroke-width:1.0;"/><path d="M1330.5156,354.3359 Q1330.6719,354.1172 1330.8594,354.0078 Q1331.0469,353.8984 1331.2656,353.8984 Q1331.6406,353.8984 1331.875,354.1563 Q1332.1094,354.4141 1332.1094,355.0234 L1332.1094,356.4766 Q1332.1094,357.0859 1331.875,357.3516 Q1331.6406,357.6172 1331.2656,357.6172 Q1330.9219,357.6172 1330.7188,357.4141 Q1330.5156,357.2266 1330.4063,356.7109 Q1330.3594,356.3516 1330.1719,356.1641 Q1329.8438,355.7891 1329.2344,355.5703 Q1328.625,355.3516 1328,355.3516 Q1327.2344,355.3516 1326.6016,355.6797 Q1325.9688,356.0078 1325.4766,356.7578 Q1324.9844,357.5078 1324.9844,358.5391 L1324.9844,359.6328 Q1324.9844,360.8672 1325.875,361.6875 Q1326.7656,362.5078 1328.3594,362.5078 Q1329.2969,362.5078 1329.9531,362.2578 Q1330.3438,362.1016 1330.7656,361.6641 Q1331.0313,361.3984 1331.1797,361.3203 Q1331.3281,361.2422 1331.5313,361.2422 Q1331.8594,361.2422 1332.1172,361.5 Q1332.375,361.7578 1332.375,362.1016 Q1332.375,362.4453 1332.0313,362.8516 Q1331.5313,363.4297 1330.7344,363.7578 Q1329.6563,364.2109 1328.3594,364.2109 Q1326.8438,364.2109 1325.6406,363.5859 Q1324.6563,363.0859 1323.9688,362.0156 Q1323.2813,360.9453 1323.2813,359.6641 L1323.2813,358.5078 Q1323.2813,357.1797 1323.8984,356.0313 Q1324.5156,354.8828 1325.6094,354.2656 Q1326.7031,353.6484 1327.9375,353.6484 Q1328.6719,353.6484 1329.3203,353.8125 Q1329.9688,353.9766 1330.5156,354.3359 Z " fill="#000000"/><text fill="#000000" font-family="sans-serif" font-size="12" font-style="italic" lengthAdjust="spacing" textLength="44" x="1346.25" y="354.5664">&#171;Entity&#187;</text><text fill="#000000" font-family="sans-serif" font-size="14" lengthAdjust="spacing" textLength="36" x="1350.25" y="371.7363">Salon</text><line style="stroke:#181818;stroke-width:0.5;" x1="1192.5" x2="1511.5" y1="379.8125" y2="379.8125"/><rect fill="none" height="6" style="stroke:#C82930;stroke-width:1.0;" width="6" x="1199.5" y="391.1172"/><text fill="#000000" font-family="sans-serif" font-size="14" lengthAdjust="spacing" textLength="84" x="1211.5" y="398.3457">salonId: UUID</text><rect fill="none" height="6" style="stroke:#C82930;stroke-width:1.0;" width="6" x="1199.5" y="408.7266"/><text fill="#000000" font-family="sans-serif" font-size="14" lengthAdjust="spacing" textLength="94" x="1211.5" y="415.9551">location: String</text><rect fill="none" height="6" style="stroke:#C82930;stroke-width:1.0;" width="6" x="1199.5" y="426.3359"/><text fill="#000000" font-family="sans-serif" font-size="14" lengthAdjust="spacing" textLength="126" x="1211.5" y="433.5645">contact: ContactInfo</text><line style="stroke:#181818;stroke-width:1.0;" x1="1192.5" x2="1511.5" y1="440.6406" y2="440.6406"/><ellipse cx="1202.5" cy="454.9453" fill="#84BE84" rx="3" ry="3" style="stroke:#038048;stroke-width:1.0;"/><text fill="#000000" font-family="sans-serif" font-size="14" lengthAdjust="spacing" textLength="295" x="1211.5" y="459.1738">updateSalonInfo(name: String, location: String)</text></g><!--class ContactInfo--><g id="elem_ContactInfo"><rect codeLine="80" fill="#F1F1F1" height="93.9219" id="ContactInfo" rx="2.5" ry="2.5" style="stroke:#181818;stroke-width:0.5;" width="183" x="1222.5" y="619.6094"/><ellipse cx="1270.75" cy="640.9609" fill="#ADD1B2" rx="11" ry="11" style="stroke:#181818;stroke-width:1.0;"/><path d="M1273.5156,636.8359 Q1273.6719,636.6172 1273.8594,636.5078 Q1274.0469,636.3984 1274.2656,636.3984 Q1274.6406,636.3984 1274.875,636.6563 Q1275.1094,636.9141 1275.1094,637.5234 L1275.1094,638.9766 Q1275.1094,639.5859 1274.875,639.8516 Q1274.6406,640.1172 1274.2656,640.1172 Q1273.9219,640.1172 1273.7188,639.9141 Q1273.5156,639.7266 1273.4063,639.2109 Q1273.3594,638.8516 1273.1719,638.6641 Q1272.8438,638.2891 1272.2344,638.0703 Q1271.625,637.8516 1271,637.8516 Q1270.2344,637.8516 1269.6016,638.1797 Q1268.9688,638.5078 1268.4766,639.2578 Q1267.9844,640.0078 1267.9844,641.0391 L1267.9844,642.1328 Q1267.9844,643.3672 1268.875,644.1875 Q1269.7656,645.0078 1271.3594,645.0078 Q1272.2969,645.0078 1272.9531,644.7578 Q1273.3438,644.6016 1273.7656,644.1641 Q1274.0313,643.8984 1274.1797,643.8203 Q1274.3281,643.7422 1274.5313,643.7422 Q1274.8594,643.7422 1275.1172,644 Q1275.375,644.2578 1275.375,644.6016 Q1275.375,644.9453 1275.0313,645.3516 Q1274.5313,645.9297 1273.7344,646.2578 Q1272.6563,646.7109 1271.3594,646.7109 Q1269.8438,646.7109 1268.6406,646.0859 Q1267.6563,645.5859 1266.9688,644.5156 Q1266.2813,643.4453 1266.2813,642.1641 L1266.2813,641.0078 Q1266.2813,639.6797 1266.8984,638.5313 Q1267.5156,637.3828 1268.6094,636.7656 Q1269.7031,636.1484 1270.9375,636.1484 Q1271.6719,636.1484 1272.3203,636.3125 Q1272.9688,636.4766 1273.5156,636.8359 Z " fill="#000000"/><text fill="#000000" font-family="sans-serif" font-size="12" font-style="italic" lengthAdjust="spacing" textLength="82" x="1289.25" y="637.0664">&#171;ValueObject&#187;</text><text fill="#000000" font-family="sans-serif" font-size="14" lengthAdjust="spacing" textLength="72" x="1294.25" y="654.2363">ContactInfo</text><line style="stroke:#181818;stroke-width:0.5;" x1="1223.5" x2="1404.5" y1="662.3125" y2="662.3125"/><rect fill="none" height="6" style="stroke:#C82930;stroke-width:1.0;" width="6" x="1230.5" y="673.6172"/><text fill="#000000" font-family="sans-serif" font-size="14" lengthAdjust="spacing" textLength="85" x="1242.5" y="680.8457">phone: String</text><rect fill="none" height="6" style="stroke:#C82930;stroke-width:1.0;" width="6" x="1230.5" y="691.2266"/><text fill="#000000" font-family="sans-serif" font-size="14" lengthAdjust="spacing" textLength="157" x="1242.5" y="698.4551">socialMedia: List&lt;String&gt;</text><line style="stroke:#181818;stroke-width:0.5;" x1="1223.5" x2="1404.5" y1="705.5313" y2="705.5313"/></g><!--class Worker--><g id="elem_Worker"><rect codeLine="93" fill="#F1F1F1" height="146.75" id="Worker" rx="2.5" ry="2.5" style="stroke:#181818;stroke-width:0.5;" width="258" x="40" y="80.6094"/><ellipse cx="118.25" cy="101.9609" fill="#ADD1B2" rx="11" ry="11" style="stroke:#181818;stroke-width:1.0;"/><path d="M121.0156,97.8359 Q121.1719,97.6172 121.3594,97.5078 Q121.5469,97.3984 121.7656,97.3984 Q122.1406,97.3984 122.375,97.6563 Q122.6094,97.9141 122.6094,98.5234 L122.6094,99.9766 Q122.6094,100.5859 122.375,100.8516 Q122.1406,101.1172 121.7656,101.1172 Q121.4219,101.1172 121.2188,100.9141 Q121.0156,100.7266 120.9063,100.2109 Q120.8594,99.8516 120.6719,99.6641 Q120.3438,99.2891 119.7344,99.0703 Q119.125,98.8516 118.5,98.8516 Q117.7344,98.8516 117.1016,99.1797 Q116.4688,99.5078 115.9766,100.2578 Q115.4844,101.0078 115.4844,102.0391 L115.4844,103.1328 Q115.4844,104.3672 116.375,105.1875 Q117.2656,106.0078 118.8594,106.0078 Q119.7969,106.0078 120.4531,105.7578 Q120.8438,105.6016 121.2656,105.1641 Q121.5313,104.8984 121.6797,104.8203 Q121.8281,104.7422 122.0313,104.7422 Q122.3594,104.7422 122.6172,105 Q122.875,105.2578 122.875,105.6016 Q122.875,105.9453 122.5313,106.3516 Q122.0313,106.9297 121.2344,107.2578 Q120.1563,107.7109 118.8594,107.7109 Q117.3438,107.7109 116.1406,107.0859 Q115.1563,106.5859 114.4688,105.5156 Q113.7813,104.4453 113.7813,103.1641 L113.7813,102.0078 Q113.7813,100.6797 114.3984,99.5313 Q115.0156,98.3828 116.1094,97.7656 Q117.2031,97.1484 118.4375,97.1484 Q119.1719,97.1484 119.8203,97.3125 Q120.4688,97.4766 121.0156,97.8359 Z " fill="#000000"/><text fill="#000000" font-family="sans-serif" font-size="12" font-style="italic" lengthAdjust="spacing" textLength="97" x="136.75" y="98.0664">&#171;AggregateRoot&#187;</text><text fill="#000000" font-family="sans-serif" font-size="14" lengthAdjust="spacing" textLength="46" x="162.25" y="115.2363">Worker</text><line style="stroke:#181818;stroke-width:0.5;" x1="41" x2="297" y1="123.3125" y2="123.3125"/><rect fill="none" height="6" style="stroke:#C82930;stroke-width:1.0;" width="6" x="48" y="134.6172"/><text fill="#000000" font-family="sans-serif" font-size="14" lengthAdjust="spacing" textLength="92" x="60" y="141.8457">workerId: UUID</text><rect fill="none" height="6" style="stroke:#C82930;stroke-width:1.0;" width="6" x="48" y="152.2266"/><text fill="#000000" font-family="sans-serif" font-size="14" lengthAdjust="spacing" textLength="93" x="60" y="159.4551">nombre: String</text><rect fill="none" height="6" style="stroke:#C82930;stroke-width:1.0;" width="6" x="48" y="169.8359"/><text fill="#000000" font-family="sans-serif" font-size="14" lengthAdjust="spacing" textLength="169" x="60" y="177.0645">schedules: List&lt;Schedule&gt;</text><line style="stroke:#181818;stroke-width:1.0;" x1="41" x2="297" y1="184.1406" y2="184.1406"/><ellipse cx="51" cy="198.4453" fill="#84BE84" rx="3" ry="3" style="stroke:#038048;stroke-width:1.0;"/><text fill="#000000" font-family="sans-serif" font-size="14" lengthAdjust="spacing" textLength="217" x="60" y="202.6738">addSchedule(schedule: Schedule)</text><ellipse cx="51" cy="216.0547" fill="#84BE84" rx="3" ry="3" style="stroke:#038048;stroke-width:1.0;"/><text fill="#000000" font-family="sans-serif" font-size="14" lengthAdjust="spacing" textLength="232" x="60" y="220.2832">deleteSchedule(schedule: Schedule)</text></g><!--class Schedule--><g id="elem_Schedule"><rect codeLine="102" fill="#F1F1F1" height="146.75" id="Schedule" rx="2.5" ry="2.5" style="stroke:#181818;stroke-width:0.5;" width="294" x="22" y="328.1094"/><ellipse cx="135.25" cy="349.4609" fill="#ADD1B2" rx="11" ry="11" style="stroke:#181818;stroke-width:1.0;"/><path d="M138.0156,345.3359 Q138.1719,345.1172 138.3594,345.0078 Q138.5469,344.8984 138.7656,344.8984 Q139.1406,344.8984 139.375,345.1563 Q139.6094,345.4141 139.6094,346.0234 L139.6094,347.4766 Q139.6094,348.0859 139.375,348.3516 Q139.1406,348.6172 138.7656,348.6172 Q138.4219,348.6172 138.2188,348.4141 Q138.0156,348.2266 137.9063,347.7109 Q137.8594,347.3516 137.6719,347.1641 Q137.3438,346.7891 136.7344,346.5703 Q136.125,346.3516 135.5,346.3516 Q134.7344,346.3516 134.1016,346.6797 Q133.4688,347.0078 132.9766,347.7578 Q132.4844,348.5078 132.4844,349.5391 L132.4844,350.6328 Q132.4844,351.8672 133.375,352.6875 Q134.2656,353.5078 135.8594,353.5078 Q136.7969,353.5078 137.4531,353.2578 Q137.8438,353.1016 138.2656,352.6641 Q138.5313,352.3984 138.6797,352.3203 Q138.8281,352.2422 139.0313,352.2422 Q139.3594,352.2422 139.6172,352.5 Q139.875,352.7578 139.875,353.1016 Q139.875,353.4453 139.5313,353.8516 Q139.0313,354.4297 138.2344,354.7578 Q137.1563,355.2109 135.8594,355.2109 Q134.3438,355.2109 133.1406,354.5859 Q132.1563,354.0859 131.4688,353.0156 Q130.7813,351.9453 130.7813,350.6641 L130.7813,349.5078 Q130.7813,348.1797 131.3984,347.0313 Q132.0156,345.8828 133.1094,345.2656 Q134.2031,344.6484 135.4375,344.6484 Q136.1719,344.6484 136.8203,344.8125 Q137.4688,344.9766 138.0156,345.3359 Z " fill="#000000"/><text fill="#000000" font-family="sans-serif" font-size="12" font-style="italic" lengthAdjust="spacing" textLength="44" x="163.25" y="345.5664">&#171;Entity&#187;</text><text fill="#000000" font-family="sans-serif" font-size="14" lengthAdjust="spacing" textLength="59" x="155.75" y="362.7363">Schedule</text><line style="stroke:#181818;stroke-width:0.5;" x1="23" x2="315" y1="370.8125" y2="370.8125"/><rect fill="none" height="6" style="stroke:#C82930;stroke-width:1.0;" width="6" x="30" y="382.1172"/><text fill="#000000" font-family="sans-serif" font-size="14" lengthAdjust="spacing" textLength="107" x="42" y="389.3457">scheduleId: UUID</text><rect fill="none" height="6" style="stroke:#C82930;stroke-width:1.0;" width="6" x="30" y="399.7266"/><text fill="#000000" font-family="sans-serif" font-size="14" lengthAdjust="spacing" textLength="66" x="42" y="406.9551">date: Date</text><rect fill="none" height="6" style="stroke:#C82930;stroke-width:1.0;" width="6" x="30" y="417.3359"/><text fill="#000000" font-family="sans-serif" font-size="14" lengthAdjust="spacing" textLength="158" x="42" y="424.5645">timeSlots: List&lt;TimeSlot&gt;</text><line style="stroke:#181818;stroke-width:1.0;" x1="23" x2="315" y1="431.6406" y2="431.6406"/><ellipse cx="33" cy="445.9453" fill="#84BE84" rx="3" ry="3" style="stroke:#038048;stroke-width:1.0;"/><text fill="#000000" font-family="sans-serif" font-size="14" lengthAdjust="spacing" textLength="219" x="42" y="450.1738">getAvailableSlots(): List&lt;TimeSlot&gt;</text><ellipse cx="33" cy="463.5547" fill="#84BE84" rx="3" ry="3" style="stroke:#038048;stroke-width:1.0;"/><text fill="#000000" font-family="sans-serif" font-size="14" lengthAdjust="spacing" textLength="268" x="42" y="467.7832">isSlotAvailable(slotId: TimeSlotId): Boolean</text></g><!--class TimeSlot--><g id="elem_TimeSlot"><rect codeLine="111" fill="#F1F1F1" height="164.3594" id="TimeSlot" rx="2.5" ry="2.5" style="stroke:#181818;stroke-width:0.5;" width="144" x="22" y="584.6094"/><ellipse cx="62.65" cy="605.9609" fill="#ADD1B2" rx="11" ry="11" style="stroke:#181818;stroke-width:1.0;"/><path d="M65.4156,601.8359 Q65.5719,601.6172 65.7594,601.5078 Q65.9469,601.3984 66.1656,601.3984 Q66.5406,601.3984 66.775,601.6563 Q67.0094,601.9141 67.0094,602.5234 L67.0094,603.9766 Q67.0094,604.5859 66.775,604.8516 Q66.5406,605.1172 66.1656,605.1172 Q65.8219,605.1172 65.6188,604.9141 Q65.4156,604.7266 65.3063,604.2109 Q65.2594,603.8516 65.0719,603.6641 Q64.7438,603.2891 64.1344,603.0703 Q63.525,602.8516 62.9,602.8516 Q62.1344,602.8516 61.5016,603.1797 Q60.8688,603.5078 60.3766,604.2578 Q59.8844,605.0078 59.8844,606.0391 L59.8844,607.1328 Q59.8844,608.3672 60.775,609.1875 Q61.6656,610.0078 63.2594,610.0078 Q64.1969,610.0078 64.8531,609.7578 Q65.2438,609.6016 65.6656,609.1641 Q65.9313,608.8984 66.0797,608.8203 Q66.2281,608.7422 66.4313,608.7422 Q66.7594,608.7422 67.0172,609 Q67.275,609.2578 67.275,609.6016 Q67.275,609.9453 66.9313,610.3516 Q66.4313,610.9297 65.6344,611.2578 Q64.5563,611.7109 63.2594,611.7109 Q61.7438,611.7109 60.5406,611.0859 Q59.5563,610.5859 58.8688,609.5156 Q58.1813,608.4453 58.1813,607.1641 L58.1813,606.0078 Q58.1813,604.6797 58.7984,603.5313 Q59.4156,602.3828 60.5094,601.7656 Q61.6031,601.1484 62.8375,601.1484 Q63.5719,601.1484 64.2203,601.3125 Q64.8688,601.4766 65.4156,601.8359 Z " fill="#000000"/><text fill="#000000" font-family="sans-serif" font-size="12" font-style="italic" lengthAdjust="spacing" textLength="44" x="87.85" y="602.0664">&#171;Entity&#187;</text><text fill="#000000" font-family="sans-serif" font-size="14" lengthAdjust="spacing" textLength="55" x="82.35" y="619.2363">TimeSlot</text><line style="stroke:#181818;stroke-width:0.5;" x1="23" x2="165" y1="627.3125" y2="627.3125"/><rect fill="none" height="6" style="stroke:#C82930;stroke-width:1.0;" width="6" x="30" y="638.6172"/><text fill="#000000" font-family="sans-serif" font-size="14" lengthAdjust="spacing" textLength="107" x="42" y="645.8457">slotId: TimeSlotId</text><rect fill="none" height="6" style="stroke:#C82930;stroke-width:1.0;" width="6" x="30" y="656.2266"/><text fill="#000000" font-family="sans-serif" font-size="14" lengthAdjust="spacing" textLength="97" x="42" y="663.4551">start: DateTime</text><rect fill="none" height="6" style="stroke:#C82930;stroke-width:1.0;" width="6" x="30" y="673.8359"/><text fill="#000000" font-family="sans-serif" font-size="14" lengthAdjust="spacing" textLength="93" x="42" y="681.0645">end: DateTime</text><rect fill="none" height="6" style="stroke:#C82930;stroke-width:1.0;" width="6" x="30" y="691.4453"/><text fill="#000000" font-family="sans-serif" font-size="14" lengthAdjust="spacing" textLength="116" x="42" y="698.6738">reserved: Boolean</text><line style="stroke:#181818;stroke-width:1.0;" x1="23" x2="165" y1="705.75" y2="705.75"/><ellipse cx="33" cy="720.0547" fill="#84BE84" rx="3" ry="3" style="stroke:#038048;stroke-width:1.0;"/><text fill="#000000" font-family="sans-serif" font-size="14" lengthAdjust="spacing" textLength="118" x="42" y="724.2832">markAsReserved()</text><ellipse cx="33" cy="737.6641" fill="#84BE84" rx="3" ry="3" style="stroke:#038048;stroke-width:1.0;"/><text fill="#000000" font-family="sans-serif" font-size="14" lengthAdjust="spacing" textLength="114" x="42" y="741.8926">markAsAvailable()</text></g><!--class TimeSlotId--><g id="elem_TimeSlotId"><rect codeLine="121" fill="#F1F1F1" height="76.3125" id="TimeSlotId" rx="2.5" ry="2.5" style="stroke:#181818;stroke-width:0.5;" width="110" x="75" y="884.1094"/><ellipse cx="90" cy="905.4609" fill="#ADD1B2" rx="11" ry="11" style="stroke:#181818;stroke-width:1.0;"/><path d="M92.7656,901.3359 Q92.9219,901.1172 93.1094,901.0078 Q93.2969,900.8984 93.5156,900.8984 Q93.8906,900.8984 94.125,901.1563 Q94.3594,901.4141 94.3594,902.0234 L94.3594,903.4766 Q94.3594,904.0859 94.125,904.3516 Q93.8906,904.6172 93.5156,904.6172 Q93.1719,904.6172 92.9688,904.4141 Q92.7656,904.2266 92.6563,903.7109 Q92.6094,903.3516 92.4219,903.1641 Q92.0938,902.7891 91.4844,902.5703 Q90.875,902.3516 90.25,902.3516 Q89.4844,902.3516 88.8516,902.6797 Q88.2188,903.0078 87.7266,903.7578 Q87.2344,904.5078 87.2344,905.5391 L87.2344,906.6328 Q87.2344,907.8672 88.125,908.6875 Q89.0156,909.5078 90.6094,909.5078 Q91.5469,909.5078 92.2031,909.2578 Q92.5938,909.1016 93.0156,908.6641 Q93.2813,908.3984 93.4297,908.3203 Q93.5781,908.2422 93.7813,908.2422 Q94.1094,908.2422 94.3672,908.5 Q94.625,908.7578 94.625,909.1016 Q94.625,909.4453 94.2813,909.8516 Q93.7813,910.4297 92.9844,910.7578 Q91.9063,911.2109 90.6094,911.2109 Q89.0938,911.2109 87.8906,910.5859 Q86.9063,910.0859 86.2188,909.0156 Q85.5313,907.9453 85.5313,906.6641 L85.5313,905.5078 Q85.5313,904.1797 86.1484,903.0313 Q86.7656,901.8828 87.8594,901.2656 Q88.9531,900.6484 90.1875,900.6484 Q90.9219,900.6484 91.5703,900.8125 Q92.2188,900.9766 92.7656,901.3359 Z " fill="#000000"/><text fill="#000000" font-family="sans-serif" font-size="12" font-style="italic" lengthAdjust="spacing" textLength="82" x="102" y="901.5664">&#171;ValueObject&#187;</text><text fill="#000000" font-family="sans-serif" font-size="14" lengthAdjust="spacing" textLength="66" x="110" y="918.7363">TimeSlotId</text><line style="stroke:#181818;stroke-width:0.5;" x1="76" x2="184" y1="926.8125" y2="926.8125"/><rect fill="none" height="6" style="stroke:#C82930;stroke-width:1.0;" width="6" x="83" y="938.1172"/><text fill="#000000" font-family="sans-serif" font-size="14" lengthAdjust="spacing" textLength="73" x="95" y="945.3457">value: UUID</text><line style="stroke:#181818;stroke-width:0.5;" x1="76" x2="184" y1="952.4219" y2="952.4219"/></g><!--class Reservation--><g id="elem_Reservation"><rect codeLine="125" fill="#F1F1F1" height="181.9688" id="Reservation" rx="2.5" ry="2.5" style="stroke:#181818;stroke-width:0.5;" width="271" x="201.5" y="575.6094"/><ellipse cx="286.25" cy="596.9609" fill="#ADD1B2" rx="11" ry="11" style="stroke:#181818;stroke-width:1.0;"/><path d="M289.0156,592.8359 Q289.1719,592.6172 289.3594,592.5078 Q289.5469,592.3984 289.7656,592.3984 Q290.1406,592.3984 290.375,592.6563 Q290.6094,592.9141 290.6094,593.5234 L290.6094,594.9766 Q290.6094,595.5859 290.375,595.8516 Q290.1406,596.1172 289.7656,596.1172 Q289.4219,596.1172 289.2188,595.9141 Q289.0156,595.7266 288.9063,595.2109 Q288.8594,594.8516 288.6719,594.6641 Q288.3438,594.2891 287.7344,594.0703 Q287.125,593.8516 286.5,593.8516 Q285.7344,593.8516 285.1016,594.1797 Q284.4688,594.5078 283.9766,595.2578 Q283.4844,596.0078 283.4844,597.0391 L283.4844,598.1328 Q283.4844,599.3672 284.375,600.1875 Q285.2656,601.0078 286.8594,601.0078 Q287.7969,601.0078 288.4531,600.7578 Q288.8438,600.6016 289.2656,600.1641 Q289.5313,599.8984 289.6797,599.8203 Q289.8281,599.7422 290.0313,599.7422 Q290.3594,599.7422 290.6172,600 Q290.875,600.2578 290.875,600.6016 Q290.875,600.9453 290.5313,601.3516 Q290.0313,601.9297 289.2344,602.2578 Q288.1563,602.7109 286.8594,602.7109 Q285.3438,602.7109 284.1406,602.0859 Q283.1563,601.5859 282.4688,600.5156 Q281.7813,599.4453 281.7813,598.1641 L281.7813,597.0078 Q281.7813,595.6797 282.3984,594.5313 Q283.0156,593.3828 284.1094,592.7656 Q285.2031,592.1484 286.4375,592.1484 Q287.1719,592.1484 287.8203,592.3125 Q288.4688,592.4766 289.0156,592.8359 Z " fill="#000000"/><text fill="#000000" font-family="sans-serif" font-size="12" font-style="italic" lengthAdjust="spacing" textLength="97" x="304.75" y="593.0664">&#171;AggregateRoot&#187;</text><text fill="#000000" font-family="sans-serif" font-size="14" lengthAdjust="spacing" textLength="76" x="315.25" y="610.2363">Reservation</text><line style="stroke:#181818;stroke-width:0.5;" x1="202.5" x2="471.5" y1="618.3125" y2="618.3125"/><rect fill="none" height="6" style="stroke:#C82930;stroke-width:1.0;" width="6" x="209.5" y="629.6172"/><text fill="#000000" font-family="sans-serif" font-size="14" lengthAdjust="spacing" textLength="177" x="221.5" y="636.8457">reservationId: ReservationId</text><rect fill="none" height="6" style="stroke:#C82930;stroke-width:1.0;" width="6" x="209.5" y="647.2266"/><text fill="#000000" font-family="sans-serif" font-size="14" lengthAdjust="spacing" textLength="139" x="221.5" y="654.4551">customerId: AccountId</text><rect fill="none" height="6" style="stroke:#C82930;stroke-width:1.0;" width="6" x="209.5" y="664.8359"/><text fill="#000000" font-family="sans-serif" font-size="14" lengthAdjust="spacing" textLength="115" x="221.5" y="672.0645">salonId: AccountId</text><rect fill="none" height="6" style="stroke:#C82930;stroke-width:1.0;" width="6" x="209.5" y="682.4453"/><text fill="#000000" font-family="sans-serif" font-size="14" lengthAdjust="spacing" textLength="139" x="221.5" y="689.6738">paymentId: PaymentId</text><rect fill="none" height="6" style="stroke:#C82930;stroke-width:1.0;" width="6" x="209.5" y="700.0547"/><text fill="#000000" font-family="sans-serif" font-size="14" lengthAdjust="spacing" textLength="169" x="221.5" y="707.2832">timeSlots: List&lt;TimeSlotId&gt;</text><line style="stroke:#181818;stroke-width:1.0;" x1="202.5" x2="471.5" y1="714.3594" y2="714.3594"/><ellipse cx="212.5" cy="728.6641" fill="#84BE84" rx="3" ry="3" style="stroke:#038048;stroke-width:1.0;"/><text fill="#000000" font-family="sans-serif" font-size="14" lengthAdjust="spacing" textLength="51" x="221.5" y="732.8926">cancel()</text><ellipse cx="212.5" cy="746.2734" fill="#84BE84" rx="3" ry="3" style="stroke:#038048;stroke-width:1.0;"/><text fill="#000000" font-family="sans-serif" font-size="14" lengthAdjust="spacing" textLength="245" x="221.5" y="750.502">reschedule(newTimeSlotId: TimeSlotId)</text></g><!--class Payment--><g id="elem_Payment"><rect codeLine="149" fill="#F1F1F1" height="181.9688" id="Payment" rx="2.5" ry="2.5" style="stroke:#181818;stroke-width:0.5;" width="203" x="1909.5" y="575.6094"/><ellipse cx="1960.25" cy="596.9609" fill="#ADD1B2" rx="11" ry="11" style="stroke:#181818;stroke-width:1.0;"/><path d="M1963.0156,592.8359 Q1963.1719,592.6172 1963.3594,592.5078 Q1963.5469,592.3984 1963.7656,592.3984 Q1964.1406,592.3984 1964.375,592.6563 Q1964.6094,592.9141 1964.6094,593.5234 L1964.6094,594.9766 Q1964.6094,595.5859 1964.375,595.8516 Q1964.1406,596.1172 1963.7656,596.1172 Q1963.4219,596.1172 1963.2188,595.9141 Q1963.0156,595.7266 1962.9063,595.2109 Q1962.8594,594.8516 1962.6719,594.6641 Q1962.3438,594.2891 1961.7344,594.0703 Q1961.125,593.8516 1960.5,593.8516 Q1959.7344,593.8516 1959.1016,594.1797 Q1958.4688,594.5078 1957.9766,595.2578 Q1957.4844,596.0078 1957.4844,597.0391 L1957.4844,598.1328 Q1957.4844,599.3672 1958.375,600.1875 Q1959.2656,601.0078 1960.8594,601.0078 Q1961.7969,601.0078 1962.4531,600.7578 Q1962.8438,600.6016 1963.2656,600.1641 Q1963.5313,599.8984 1963.6797,599.8203 Q1963.8281,599.7422 1964.0313,599.7422 Q1964.3594,599.7422 1964.6172,600 Q1964.875,600.2578 1964.875,600.6016 Q1964.875,600.9453 1964.5313,601.3516 Q1964.0313,601.9297 1963.2344,602.2578 Q1962.1563,602.7109 1960.8594,602.7109 Q1959.3438,602.7109 1958.1406,602.0859 Q1957.1563,601.5859 1956.4688,600.5156 Q1955.7813,599.4453 1955.7813,598.1641 L1955.7813,597.0078 Q1955.7813,595.6797 1956.3984,594.5313 Q1957.0156,593.3828 1958.1094,592.7656 Q1959.2031,592.1484 1960.4375,592.1484 Q1961.1719,592.1484 1961.8203,592.3125 Q1962.4688,592.4766 1963.0156,592.8359 Z " fill="#000000"/><text fill="#000000" font-family="sans-serif" font-size="12" font-style="italic" lengthAdjust="spacing" textLength="97" x="1978.75" y="593.0664">&#171;AggregateRoot&#187;</text><text fill="#000000" font-family="sans-serif" font-size="14" lengthAdjust="spacing" textLength="55" x="1999.75" y="610.2363">Payment</text><line style="stroke:#181818;stroke-width:0.5;" x1="1910.5" x2="2111.5" y1="618.3125" y2="618.3125"/><rect fill="none" height="6" style="stroke:#C82930;stroke-width:1.0;" width="6" x="1917.5" y="629.6172"/><text fill="#000000" font-family="sans-serif" font-size="14" lengthAdjust="spacing" textLength="139" x="1929.5" y="636.8457">paymentId: PaymentId</text><rect fill="none" height="6" style="stroke:#C82930;stroke-width:1.0;" width="6" x="1917.5" y="647.2266"/><text fill="#000000" font-family="sans-serif" font-size="14" lengthAdjust="spacing" textLength="177" x="1929.5" y="654.4551">reservationId: ReservationId</text><rect fill="none" height="6" style="stroke:#C82930;stroke-width:1.0;" width="6" x="1917.5" y="664.8359"/><text fill="#000000" font-family="sans-serif" font-size="14" lengthAdjust="spacing" textLength="117" x="1929.5" y="672.0645">payerId: AccountId</text><rect fill="none" height="6" style="stroke:#C82930;stroke-width:1.0;" width="6" x="1917.5" y="682.4453"/><text fill="#000000" font-family="sans-serif" font-size="14" lengthAdjust="spacing" textLength="97" x="1929.5" y="689.6738">amount: Money</text><rect fill="none" height="6" style="stroke:#C82930;stroke-width:1.0;" width="6" x="1917.5" y="700.0547"/><text fill="#000000" font-family="sans-serif" font-size="14" lengthAdjust="spacing" textLength="83" x="1929.5" y="707.2832">status: String</text><line style="stroke:#181818;stroke-width:0.5;" x1="1910.5" x2="2111.5" y1="714.3594" y2="714.3594"/><ellipse cx="1920.5" cy="728.6641" fill="#84BE84" rx="3" ry="3" style="stroke:#038048;stroke-width:1.0;"/><text fill="#000000" font-family="sans-serif" font-size="14" lengthAdjust="spacing" textLength="69" x="1929.5" y="732.8926">markPaid()</text><ellipse cx="1920.5" cy="746.2734" fill="#84BE84" rx="3" ry="3" style="stroke:#038048;stroke-width:1.0;"/><text fill="#000000" font-family="sans-serif" font-size="14" lengthAdjust="spacing" textLength="80" x="1929.5" y="750.502">markFailed()</text></g><!--class Invoice--><g id="elem_Invoice"><rect codeLine="159" fill="#F1F1F1" height="129.1406" id="Invoice" rx="2.5" ry="2.5" style="stroke:#181818;stroke-width:0.5;" width="186" x="1909" y="857.6094"/><ellipse cx="1975.75" cy="878.9609" fill="#ADD1B2" rx="11" ry="11" style="stroke:#181818;stroke-width:1.0;"/><path d="M1978.5156,874.8359 Q1978.6719,874.6172 1978.8594,874.5078 Q1979.0469,874.3984 1979.2656,874.3984 Q1979.6406,874.3984 1979.875,874.6563 Q1980.1094,874.9141 1980.1094,875.5234 L1980.1094,876.9766 Q1980.1094,877.5859 1979.875,877.8516 Q1979.6406,878.1172 1979.2656,878.1172 Q1978.9219,878.1172 1978.7188,877.9141 Q1978.5156,877.7266 1978.4063,877.2109 Q1978.3594,876.8516 1978.1719,876.6641 Q1977.8438,876.2891 1977.2344,876.0703 Q1976.625,875.8516 1976,875.8516 Q1975.2344,875.8516 1974.6016,876.1797 Q1973.9688,876.5078 1973.4766,877.2578 Q1972.9844,878.0078 1972.9844,879.0391 L1972.9844,880.1328 Q1972.9844,881.3672 1973.875,882.1875 Q1974.7656,883.0078 1976.3594,883.0078 Q1977.2969,883.0078 1977.9531,882.7578 Q1978.3438,882.6016 1978.7656,882.1641 Q1979.0313,881.8984 1979.1797,881.8203 Q1979.3281,881.7422 1979.5313,881.7422 Q1979.8594,881.7422 1980.1172,882 Q1980.375,882.2578 1980.375,882.6016 Q1980.375,882.9453 1980.0313,883.3516 Q1979.5313,883.9297 1978.7344,884.2578 Q1977.6563,884.7109 1976.3594,884.7109 Q1974.8438,884.7109 1973.6406,884.0859 Q1972.6563,883.5859 1971.9688,882.5156 Q1971.2813,881.4453 1971.2813,880.1641 L1971.2813,879.0078 Q1971.2813,877.6797 1971.8984,876.5313 Q1972.5156,875.3828 1973.6094,874.7656 Q1974.7031,874.1484 1975.9375,874.1484 Q1976.6719,874.1484 1977.3203,874.3125 Q1977.9688,874.4766 1978.5156,874.8359 Z " fill="#000000"/><text fill="#000000" font-family="sans-serif" font-size="12" font-style="italic" lengthAdjust="spacing" textLength="44" x="1996.25" y="875.0664">&#171;Entity&#187;</text><text fill="#000000" font-family="sans-serif" font-size="14" lengthAdjust="spacing" textLength="44" x="1996.25" y="892.2363">Invoice</text><line style="stroke:#181818;stroke-width:0.5;" x1="1910" x2="2094" y1="900.3125" y2="900.3125"/><rect fill="none" height="6" style="stroke:#C82930;stroke-width:1.0;" width="6" x="1917" y="911.6172"/><text fill="#000000" font-family="sans-serif" font-size="14" lengthAdjust="spacing" textLength="94" x="1929" y="918.8457">invoiceId: UUID</text><rect fill="none" height="6" style="stroke:#C82930;stroke-width:1.0;" width="6" x="1917" y="929.2266"/><text fill="#000000" font-family="sans-serif" font-size="14" lengthAdjust="spacing" textLength="123" x="1929" y="936.4551">issuedAt: DateTime</text><rect fill="none" height="6" style="stroke:#C82930;stroke-width:1.0;" width="6" x="1917" y="946.8359"/><text fill="#000000" font-family="sans-serif" font-size="14" lengthAdjust="spacing" textLength="97" x="1929" y="954.0645">amount: Money</text><line style="stroke:#181818;stroke-width:0.5;" x1="1910" x2="2094" y1="961.1406" y2="961.1406"/><ellipse cx="1920" cy="975.4453" fill="#84BE84" rx="3" ry="3" style="stroke:#038048;stroke-width:1.0;"/><text fill="#000000" font-family="sans-serif" font-size="14" lengthAdjust="spacing" textLength="160" x="1929" y="979.6738">generateFor(p: Payment)</text></g><!--class PaymentAdapter--><g id="elem_PaymentAdapter"><rect codeLine="166" fill="#F1F1F1" height="93.9219" id="PaymentAdapter" rx="2.5" ry="2.5" style="stroke:#181818;stroke-width:0.5;" width="611" x="2130.5" y="875.1094"/><ellipse cx="2379.25" cy="896.4609" fill="#ADD1B2" rx="11" ry="11" style="stroke:#181818;stroke-width:1.0;"/><path d="M2382.0156,892.3359 Q2382.1719,892.1172 2382.3594,892.0078 Q2382.5469,891.8984 2382.7656,891.8984 Q2383.1406,891.8984 2383.375,892.1563 Q2383.6094,892.4141 2383.6094,893.0234 L2383.6094,894.4766 Q2383.6094,895.0859 2383.375,895.3516 Q2383.1406,895.6172 2382.7656,895.6172 Q2382.4219,895.6172 2382.2188,895.4141 Q2382.0156,895.2266 2381.9063,894.7109 Q2381.8594,894.3516 2381.6719,894.1641 Q2381.3438,893.7891 2380.7344,893.5703 Q2380.125,893.3516 2379.5,893.3516 Q2378.7344,893.3516 2378.1016,893.6797 Q2377.4688,894.0078 2376.9766,894.7578 Q2376.4844,895.5078 2376.4844,896.5391 L2376.4844,897.6328 Q2376.4844,898.8672 2377.375,899.6875 Q2378.2656,900.5078 2379.8594,900.5078 Q2380.7969,900.5078 2381.4531,900.2578 Q2381.8438,900.1016 2382.2656,899.6641 Q2382.5313,899.3984 2382.6797,899.3203 Q2382.8281,899.2422 2383.0313,899.2422 Q2383.3594,899.2422 2383.6172,899.5 Q2383.875,899.7578 2383.875,900.1016 Q2383.875,900.4453 2383.5313,900.8516 Q2383.0313,901.4297 2382.2344,901.7578 Q2381.1563,902.2109 2379.8594,902.2109 Q2378.3438,902.2109 2377.1406,901.5859 Q2376.1563,901.0859 2375.4688,900.0156 Q2374.7813,898.9453 2374.7813,897.6641 L2374.7813,896.5078 Q2374.7813,895.1797 2375.3984,894.0313 Q2376.0156,892.8828 2377.1094,892.2656 Q2378.2031,891.6484 2379.4375,891.6484 Q2380.1719,891.6484 2380.8203,891.8125 Q2381.4688,891.9766 2382.0156,892.3359 Z " fill="#000000"/><text fill="#000000" font-family="sans-serif" font-size="12" font-style="italic" lengthAdjust="spacing" textLength="57" x="2423.75" y="892.5664">&#171;Adapter&#187;</text><text fill="#000000" font-family="sans-serif" font-size="14" lengthAdjust="spacing" textLength="105" x="2399.75" y="909.7363">PaymentAdapter</text><line style="stroke:#181818;stroke-width:0.5;" x1="2131.5" x2="2740.5" y1="917.8125" y2="917.8125"/><line style="stroke:#181818;stroke-width:0.5;" x1="2131.5" x2="2740.5" y1="925.8125" y2="925.8125"/><ellipse cx="2141.5" cy="940.1172" fill="#84BE84" rx="3" ry="3" style="stroke:#038048;stroke-width:1.0;"/><text fill="#000000" font-family="sans-serif" font-size="14" lengthAdjust="spacing" textLength="585" x="2150.5" y="944.3457">processPayment(reservationId: ReservationId, payerId: AccountId, amount: Money): Payment</text><ellipse cx="2141.5" cy="957.7266" fill="#84BE84" rx="3" ry="3" style="stroke:#038048;stroke-width:1.0;"/><text fill="#000000" font-family="sans-serif" font-size="14" lengthAdjust="spacing" textLength="396" x="2150.5" y="961.9551">refundPayment(paymentId: PaymentId, reason: String): Refund</text></g><!--link Account to AccountId--><g id="link_Account_AccountId"><path codeLine="52" d="M579.9352,502.0014 C569.6752,513.8514 568.6,517.6894 562,531.6094 C517.7,624.9694 534,664.6394 562,764.1094 C574.64,809.0094 600.4554,848.9855 623.4254,879.1555 " fill="none" id="Account-AccountId" style="stroke:#181818;stroke-width:1.0;"/><polygon fill="none" points="587.79,492.9294,580.8386,494.8471,579.9352,502.0014,586.8866,500.0837,587.79,492.9294" style="stroke:#181818;stroke-width:1.0;"/><polygon fill="#181818" points="627.06,883.9294,624.7907,874.3455,624.0312,879.9512,618.4255,879.1916,627.06,883.9294" style="stroke:#181818;stroke-width:1.0;"/></g><!--link Account to AuthToken--><g id="link_Account_AuthToken"><path codeLine="53" d="M698.75,492.7494 C691.04,525.4694 683.8067,556.1394 676.4967,587.1494 " fill="none" id="Account-to-AuthToken" style="stroke:#181818;stroke-width:1.0;"/><polygon fill="#181818" points="675.12,592.9894,681.0783,585.1472,676.2672,588.1228,673.2917,583.3117,675.12,592.9894" style="stroke:#181818;stroke-width:1.0;"/></g><!--link Account to AuthAdapter--><g id="link_Account_AuthAdapter"><path codeLine="54" d="M799.86,492.7494 C840.96,539.1494 884.8614,588.6982 915.9914,623.8382 " fill="none" id="Account-to-AuthAdapter" style="stroke:#181818;stroke-width:1.0;"/><polygon fill="#181818" points="919.97,628.3294,916.9961,618.9402,916.6545,624.5868,911.0079,624.2451,919.97,628.3294" style="stroke:#181818;stroke-width:1.0;"/></g><!--link AuthToken to AccountId--><g id="link_AuthToken_AccountId"><path codeLine="55" d="M658,752.2494 C658,799.2194 658,840.3794 658,877.9894 " fill="none" id="AuthToken-AccountId" style="stroke:#181818;stroke-width:1.0;"/><polygon fill="none" points="658,740.2494,654,746.2494,658,752.2494,662,746.2494,658,740.2494" style="stroke:#181818;stroke-width:1.0;"/><polygon fill="#181818" points="658,883.9894,662,874.9894,658,878.9894,654,874.9894,658,883.9894" style="stroke:#181818;stroke-width:1.0;"/></g><!--link User to AccountId--><g id="link_User_AccountId"><path codeLine="85" d="M1469.7709,731.4315 C1454.4809,747.7715 1443.89,754.9694 1423,764.1094 C1358.01,792.5394 853.92,770.7994 785,787.6094 C758.73,794.0194 750.48,795.9594 730,813.6094 C707.37,833.1094 691.7368,856.1161 679.1368,878.7661 " fill="none" id="User-AccountId" style="stroke:#181818;stroke-width:1.0;"/><polygon fill="none" points="1477.97,722.6694,1470.9497,724.3174,1469.7709,731.4315,1476.7912,729.7835,1477.97,722.6694" style="stroke:#181818;stroke-width:1.0;"/><polygon fill="#181818" points="676.22,884.0094,684.0907,878.089,678.6507,879.64,677.0997,874.1999,676.22,884.0094" style="stroke:#181818;stroke-width:1.0;"/></g><!--link Client to User--><g id="link_Client_User"><path codeLine="86" d="M1668.27,448.7194 C1637.24,493.7994 1593.3811,557.5264 1560.3811,605.4864 " fill="none" id="Client-to-User" style="stroke:#181818;stroke-width:1.0;"/><polygon fill="#181818" points="1556.98,610.4294,1565.3769,605.2824,1559.8142,606.3103,1558.7864,600.7476,1556.98,610.4294" style="stroke:#181818;stroke-width:1.0;"/></g><!--link Salon to User--><g id="link_Salon_User"><path codeLine="87" d="M1392.43,466.2694 C1420.42,510.3594 1454.0934,563.3944 1480.8234,605.4844 " fill="none" id="Salon-to-User" style="stroke:#181818;stroke-width:1.0;"/><polygon fill="#181818" points="1484.04,610.5494,1482.5918,600.8076,1481.3595,606.3286,1475.8385,605.0964,1484.04,610.5494" style="stroke:#181818;stroke-width:1.0;"/></g><!--link Salon to ContactInfo--><g id="link_Salon_ContactInfo"><path codeLine="88" d="M1341.0843,478.1461 C1334.2543,525.4261 1327.6681,571.0011 1321.5281,613.4911 " fill="none" id="Salon-ContactInfo" style="stroke:#181818;stroke-width:1.0;"/><polygon fill="none" points="1342.8,466.2694,1337.9832,471.6358,1341.0843,478.1461,1345.9011,472.7796,1342.8,466.2694" style="stroke:#181818;stroke-width:1.0;"/><polygon fill="#181818" points="1320.67,619.4294,1325.9161,611.094,1321.3851,614.4808,1317.9983,609.9498,1320.67,619.4294" style="stroke:#181818;stroke-width:1.0;"/></g><!--reverse link Worker to Schedule--><g id="link_Worker_Schedule"><path codeLine="136" d="M169,239.7694 C169,271.2994 169,296.1494 169,327.7094 " fill="none" id="Worker-backto-Schedule" style="stroke:#181818;stroke-width:1.0;"/><polygon fill="#181818" points="169,227.7694,165,233.7694,169,239.7694,173,233.7694,169,227.7694" style="stroke:#181818;stroke-width:1.0;"/><text fill="#000000" font-family="sans-serif" font-size="13" lengthAdjust="spacing" textLength="32" x="135.425" y="317.1721">many</text></g><!--reverse link Schedule to TimeSlot--><g id="link_Schedule_TimeSlot"><path codeLine="137" d="M145.0192,486.7093 C135.3492,520.6193 127.09,549.5694 117.13,584.4894 " fill="none" id="Schedule-backto-TimeSlot" style="stroke:#181818;stroke-width:1.0;"/><polygon fill="#181818" points="148.31,475.1694,142.8179,479.8424,145.0192,486.7093,150.5112,482.0363,148.31,475.1694" style="stroke:#181818;stroke-width:1.0;"/><text fill="#000000" font-family="sans-serif" font-size="13" lengthAdjust="spacing" textLength="32" x="85.7873" y="573.6762">many</text></g><!--link TimeSlot to TimeSlotId--><g id="link_TimeSlot_TimeSlotId"><path codeLine="138" d="M107.2279,760.7401 C113.6679,806.0701 118.8364,842.529 123.8564,877.879 " fill="none" id="TimeSlot-TimeSlotId" style="stroke:#181818;stroke-width:1.0;"/><polygon fill="none" points="105.54,748.8594,102.4237,755.3624,107.2279,760.7401,110.3442,754.2371,105.54,748.8594" style="stroke:#181818;stroke-width:1.0;"/><polygon fill="#181818" points="124.7,883.8194,127.3949,874.3464,123.997,878.869,119.4744,875.4712,124.7,883.8194" style="stroke:#181818;stroke-width:1.0;"/></g><!--link Reservation to ReservationId--><g id="link_Reservation_ReservationId"><path codeLine="140" d="M483.8657,736.5395 C513.1457,748.5995 533.17,755.5294 563,764.1094 C698.35,803.0594 756.15,739.6294 876,813.6094 C902.86,830.1894 920.2309,854.689 933.1909,878.709 " fill="none" id="Reservation-ReservationId" style="stroke:#181818;stroke-width:1.0;"/><polygon fill="none" points="472.77,731.9694,476.7945,737.953,483.8657,736.5395,479.8412,730.5559,472.77,731.9694" style="stroke:#181818;stroke-width:1.0;"/><polygon fill="#181818" points="936.04,883.9894,935.2867,874.1694,933.6658,879.589,928.2461,877.9681,936.04,883.9894" style="stroke:#181818;stroke-width:1.0;"/></g><!--link Reservation to AccountId--><g id="link_Reservation_AccountId"><path codeLine="141" d="M331.0277,769.47 C333.9077,787.55 338.73,792.9894 352,805.6094 C363.05,816.1194 474.49,808.9194 489,813.6094 C535.16,828.5194 576.4352,855.4529 608.7752,880.2029 " fill="none" id="Reservation-AccountId" style="stroke:#181818;stroke-width:1.0;"/><polygon fill="none" points="329.14,757.6194,326.1337,764.1739,331.0277,769.47,334.0341,762.9154,329.14,757.6194" style="stroke:#181818;stroke-width:1.0;"/><polygon fill="#181818" points="613.54,883.8494,608.8239,875.2031,609.5694,880.8106,603.9618,881.5561,613.54,883.8494" style="stroke:#181818;stroke-width:1.0;"/><text fill="#000000" font-family="sans-serif" font-size="13" lengthAdjust="spacing" textLength="64" x="353" y="802.1045">customerId</text></g><!--link Reservation to AccountId--><g id="link_Reservation_AccountId"><path codeLine="142" d="M275.0517,769.4691 C270.6817,786.8991 275.14,792.2294 288,805.6094 C303.49,821.7294 467.67,806.9394 489,813.6094 C535.46,828.1394 576.8984,855.2657 609.2184,880.1857 " fill="none" id="Reservation-AccountId-1" style="stroke:#181818;stroke-width:1.0;"/><polygon fill="none" points="277.97,757.8294,272.6309,762.6765,275.0517,769.4691,280.3908,764.622,277.97,757.8294" style="stroke:#181818;stroke-width:1.0;"/><polygon fill="#181818" points="613.97,883.8494,609.2851,875.1862,610.0103,880.7963,604.4002,881.5216,613.97,883.8494" style="stroke:#181818;stroke-width:1.0;"/><text fill="#000000" font-family="sans-serif" font-size="13" lengthAdjust="spacing" textLength="41" x="289" y="802.1045">salonId</text></g><!--link Reservation to PaymentId--><g id="link_Reservation_PaymentId"><path codeLine="143" d="M410.1634,766.5636 C428.5834,785.6936 441.94,794.7294 466,805.6094 C492.74,817.6994 704.28,799.4794 730,813.6094 C757.58,828.7594 774.199,853.9029 785.959,878.5829 " fill="none" id="Reservation-PaymentId" style="stroke:#181818;stroke-width:1.0;"/><polygon fill="none" points="401.84,757.9194,403.1203,765.0159,410.1634,766.5636,408.8831,759.467,401.84,757.9194" style="stroke:#181818;stroke-width:1.0;"/><polygon fill="#181818" points="788.54,883.9994,788.2796,874.154,786.3892,879.4856,781.0575,877.5952,788.54,883.9994" style="stroke:#181818;stroke-width:1.0;"/></g><!--link Reservation to TimeSlotId--><g id="link_Reservation_TimeSlotId"><path codeLine="144" d="M246.2442,766.9519 C237.6342,776.8719 236.98,777.8494 229,787.6094 C203.15,819.2194 179.1205,851.7892 159.6805,878.9692 " fill="none" id="Reservation-TimeSlotId" style="stroke:#181818;stroke-width:1.0;"/><polygon fill="none" points="254.11,757.8894,247.1563,759.7987,246.2442,766.9519,253.198,765.0426,254.11,757.8894" style="stroke:#181818;stroke-width:1.0;"/><polygon fill="#181818" points="156.19,883.8494,164.6792,878.856,159.0987,879.7825,158.1723,874.2021,156.19,883.8494" style="stroke:#181818;stroke-width:1.0;"/></g><!--link Payment to PaymentId--><g id="link_Payment_PaymentId"><path codeLine="171" d="M1898.9491,752.041 C1885.8791,759.211 1882.76,759.6594 1869,764.1094 C1781.64,792.3494 1134.43,779.2294 1043,787.6094 C968.2,794.4694 939.47,773.4294 876,813.6094 C849.79,830.1994 833.3758,854.6191 821.2958,878.6391 " fill="none" id="Payment-PaymentId" style="stroke:#181818;stroke-width:1.0;"/><polygon fill="none" points="1909.47,746.2694,1902.2857,745.6482,1898.9491,752.041,1906.1334,752.6621,1909.47,746.2694" style="stroke:#181818;stroke-width:1.0;"/><polygon fill="#181818" points="818.6,883.9994,826.2172,877.7561,820.8465,879.5325,819.0701,874.1617,818.6,883.9994" style="stroke:#181818;stroke-width:1.0;"/></g><!--link Payment to ReservationId--><g id="link_Payment_ReservationId"><path codeLine="172" d="M1898.8367,751.6809 C1885.7867,758.9209 1882.69,759.4494 1869,764.1094 C1692.18,824.2594 1193.54,723.3994 1030,813.6094 C1002.06,829.0194 984.5211,854.0625 971.8011,878.6025 " fill="none" id="Payment-ReservationId" style="stroke:#181818;stroke-width:1.0;"/><polygon fill="none" points="1909.33,745.8594,1902.1428,745.2724,1898.8367,751.6809,1906.0239,752.2679,1909.33,745.8594" style="stroke:#181818;stroke-width:1.0;"/><polygon fill="#181818" points="969.04,883.9294,976.733,877.7798,971.341,879.4903,969.6304,874.0982,969.04,883.9294" style="stroke:#181818;stroke-width:1.0;"/></g><!--link Payment to AccountId--><g id="link_Payment_AccountId"><path codeLine="173" d="M1898.9639,752.0914 C1885.8839,759.2514 1882.77,759.6994 1869,764.1094 C1764.54,797.6094 991.06,775.8394 882,787.6094 C840.14,792.1294 830.54,798.7794 789,805.6094 C762.89,809.8994 752.45,799.6094 730,813.6094 C703.7,830.0194 687.4658,854.5793 675.6658,878.7093 " fill="none" id="Payment-AccountId" style="stroke:#181818;stroke-width:1.0;"/><polygon fill="none" points="1909.49,746.3294,1902.3063,745.7017,1898.9639,752.0914,1906.1476,752.7191,1909.49,746.3294" style="stroke:#181818;stroke-width:1.0;"/><polygon fill="#181818" points="673.03,884.0994,680.5771,877.7715,675.2265,879.6077,673.3904,874.2571,673.03,884.0994" style="stroke:#181818;stroke-width:1.0;"/></g><!--link Payment to Money--><g id="link_Payment_Money"><path codeLine="174" d="M1899.0281,749.4628 C1885.8581,757.2428 1882.57,758.3094 1869,764.1094 C1649.41,858.0094 1373.8961,897.3627 1232.4961,912.4527 " fill="none" id="Payment-Money" style="stroke:#181818;stroke-width:1.0;"/><polygon fill="none" points="1909.36,743.3594,1902.1596,742.9671,1899.0281,749.4628,1906.2285,749.8551,1909.36,743.3594" style="stroke:#181818;stroke-width:1.0;"/><polygon fill="#181818" points="1226.53,913.0894,1235.9036,916.1117,1231.5018,912.5588,1235.0547,908.1569,1226.53,913.0894" style="stroke:#181818;stroke-width:1.0;"/></g><!--link Payment to Invoice--><g id="link_Payment_Invoice"><path codeLine="175" d="M2007.8,757.6994 C2006.63,790.7094 2005.5424,821.3631 2004.4724,851.5731 " fill="none" id="Payment-to-Invoice" style="stroke:#181818;stroke-width:1.0;"/><polygon fill="#181818" points="2004.26,857.5694,2008.5761,848.7166,2004.437,852.5725,2000.5811,848.4334,2004.26,857.5694" style="stroke:#181818;stroke-width:1.0;"/></g><!--link Payment to PaymentAdapter--><g id="link_Payment_PaymentAdapter"><path codeLine="176" d="M2112.53,728.1694 C2188.03,773.2094 2284.3669,830.666 2353.3969,871.836 " fill="none" id="Payment-to-PaymentAdapter" style="stroke:#181818;stroke-width:1.0;"/><polygon fill="#181818" points="2358.55,874.9094,2352.8692,866.8639,2354.2557,872.3482,2348.7714,873.7348,2358.55,874.9094" style="stroke:#181818;stroke-width:1.0;"/></g><!--SRC=[hLV1Rjiu4BtxAuXSLjx4Fo0a1jnakpNGO8CuQSyCDRMvaKY1f9mQY_px3YbH9YtA2j3wPF4DEJDltememqq9f7dY5P05kPCLvOBSbbHhSiVfLj5gDlk3tDpSaCsEAYZ8hHG6VXgxDAifUwLR81SnTa7-cn7yCNVCYZ7P2BCkoFNrDresyC_Bly3CSjbPsT-2x2sIa-VdzPrRVPy5Hpo21hMdXalnAySyq4C5lnR9lHHmEBkTLZRRdDm1unKj0uGrIe5WXvniZE9YUuGM_TzBGeiYSrxcUUijm7JpOXHb9c7mFdltXUe89_TKO75ind6n4lYvmc6sg-rMmPOQU9HoaAylRtwiT0032geSPangzF0cLV65wbq2vdh53DzZ7Jv9MG8LQR90KGqP4h6Nl0ZMiOQym7WVEYzPNQAklP_vyDHBiWM1fnbODMRt95z1s6FxXw4IUWZv-KiORWudn1WB9bAR88nhtK2niWh2Q6nVXcp-hBa2dKP3OXJiqNt4p23wLK5h0yhMj_qN9O1AH1iK1sVewJitkx-bt9QGIRj-AmiOeRFpuzKZ5ulbIQ8USaZ4y2dI1TPYFU4dH_R2VyOfaPvF8HABt27d5TwWYQrMFn4-L4T1AuYg7_5_Mt9mhPMK3dFeq6TOuQQs0c_FMOiVCWiTNiLzDny6iA6b79Mkjc0YvL8oDuGJgcP8BawctB6CVsn8vm9t_XDndxf8X1vuE3k9wnrEnqIeMZ9EotieECt9LwxDTMko35qvNIIqsnNE0jR4hRLS9fRS_f2GNgeRjeEYAT7ho0jrWCUo_IxLwwHmtvnHeev2LYygIKth5hGdfdjUZhwhl4Ncj-O-DvW7bWMKW4MVCeubsa6ZAktmH89MOUs830SoJijDAOrFxgbx7abk2sQrnoQYBsMxpKxJaOsNEBRjIhyXq_Xa0_Eswo8z9jjKlTLegeFJGj1GDVAw44LoNRdx51GJRzUAgjULVkoCi_a0EgOx7y_fDrty9hIkmYjY7jyOepkODh9gco8rjVl9bm9hVt_CZrV93-XhNOmeZ571e8nunJHyZmXuEvuG2IdagHi4VouMvAAYud3HjqqxXtmF1GR-96VGAy_Dga1V3WtvTmP3NWScn_j-7j0zRTjHdpQC-Hx0GTpzYEsswFI0FKNZyTgX4vgRqCC79OcdZElHVqt4NmAkvqsZ1nEyRSm7oeVT-XbRjM_YgCdM0k-8R7JCyXPEJDcpLzLqvCTxzcUfihedRZxwjJPrIwsLPA1rPvsT8_qgmVLL7EYyZoXgoX-DABo7LDMlq8Pg6NvXFBfDOLfUL0b1Hz1GA14SooI2ZbpxPRlQrNUm7XECZVC_]--></g></svg>